# Blender v2.90.1 OBJ File: ''
# www.blender.org
mtllib Star.mtl
o Star_Circle
v 0.099920 0.000000 -0.000000
v -0.099919 0.000000 -0.000000
v 0.000003 0.078865 -0.242721
v -0.000000 0.080902 -0.058779
v -0.000000 0.255212 -0.000000
v -0.000000 0.080902 0.058778
v -0.000000 0.078865 0.242720
v -0.000000 -0.030902 0.095105
v -0.000000 -0.206470 0.150009
v -0.000000 -0.100000 -0.000000
v -0.000000 -0.206470 -0.150010
v -0.000000 -0.030902 -0.095106
vt 0.000000 0.000000
vt 0.000000 0.000000
vt 0.000000 0.000000
vt 0.000000 0.000000
vt 0.000000 0.000000
vt 0.000000 0.000000
vt 0.000000 0.000000
vt 0.000000 0.000000
vt 0.000000 0.000000
vt 0.000000 0.000000
vt 0.000000 0.000000
vt 0.000000 0.000000
vn -0.6323 0.7747 -0.0086
vn -0.6323 0.2476 -0.7341
vn -0.6323 0.2476 0.7341
vn -0.6323 0.7747 0.0086
vn -0.6323 -0.6217 0.4623
vn -0.6323 0.2312 0.7394
vn -0.6323 -0.6318 -0.4484
vn -0.6323 -0.6318 0.4484
vn -0.6323 0.2312 -0.7394
vn -0.6323 -0.6217 -0.4623
vn 0.6323 -0.6217 -0.4623
vn 0.6323 0.2312 -0.7394
vn 0.6323 -0.6318 0.4484
vn 0.6323 -0.6318 -0.4484
vn 0.6323 0.2312 0.7394
vn 0.6323 -0.6217 0.4623
vn 0.6323 0.7747 0.0086
vn 0.6323 0.2476 0.7341
vn 0.6323 0.2476 -0.7341
vn 0.6323 0.7747 -0.0086
usemtl None
s off
f 4/1/1 3/2/1 2/3/1
f 5/4/2 4/1/2 2/3/2
f 6/5/3 5/4/3 2/3/3
f 7/6/4 6/5/4 2/3/4
f 8/7/5 7/6/5 2/3/5
f 9/8/6 8/7/6 2/3/6
f 10/9/7 9/8/7 2/3/7
f 11/10/8 10/9/8 2/3/8
f 12/11/9 11/10/9 2/3/9
f 3/2/10 12/11/10 2/3/10
f 1/12/11 12/11/11 3/2/11
f 1/12/12 11/10/12 12/11/12
f 1/12/13 10/9/13 11/10/13
f 1/12/14 9/8/14 10/9/14
f 1/12/15 8/7/15 9/8/15
f 1/12/16 7/6/16 8/7/16
f 1/12/17 6/5/17 7/6/17
f 1/12/18 5/4/18 6/5/18
f 1/12/19 4/1/19 5/4/19
f 1/12/20 3/2/20 4/1/20
